<?xml version="1.0" encoding="UTF-8"?>
<svg width="40px" height="40px" viewBox="0 0 40 40" version="1.1" xmlns="http://www.w3.org/2000/svg" xmlns:xlink="http://www.w3.org/1999/xlink">
    <!-- Generator: Sketch 51.3 (57544) - http://www.bohemiancoding.com/sketch -->
    <title>Piggybank</title>
    <desc>Created with Sketch.</desc>
    <defs></defs>
    <g id="0-Entry" stroke="none" stroke-width="1" fill="none" fill-rule="evenodd">
        <g id="0.0-Entry-Temporary-Modal" transform="translate(-364.000000, -440.000000)">
            <g id="Base-Modal">
                <g id="Modal" transform="translate(324.000000, 186.000000)">
                    <g id="Secondary-CTA" transform="translate(40.000000, 254.000000)">
                        <g id="Piggybank">
                            <path d="M20,40 C8.957,40 0,31.044 0,20 C0,8.956 8.957,0 20,0 C31.047,0 40,8.956 40,20 C40,31.044 31.047,40 20,40" id="Fill-1" fill="#056DAE"></path>
                            <path d="M30,19 C30,15.132 25.973,12 21,12 C19.988,12 19.027,12.148 18.121,12.388 L14.004,10.258 L14,14.632 C13.031,15.586 12.367,16.738 12.133,18 L10,18 L10,20 L12.133,20 C12.5,21.98 13.984,23.677 16.004,24.76 L16.004,28 L20.004,28 L20.004,26 L22.004,26 L22.004,28 L26.004,28 L26.004,24.76 C28.359,23.497 30,21.391 30,19 Z M31.363,16.007 C31.77,16.944 32,17.949 32,19 C32,21.778 30.434,24.228 28.004,25.869 L28,30 L14,30 L14.004,25.867 C12.519,24.851 11.367,23.523 10.703,22 L8,22 L8,16 L10.723,16 C11.039,15.272 11.48,14.602 12.004,13.975 L12.004,8 L14.004,8 L18.367,10.281 C19.207,10.103 20.086,10 21,10 C24.961,10 28.418,11.715 30.355,14.279 L31.754,13.535 L32.695,15.299 L31.363,16.007 Z M24.742,17.37 C23.828,16.536 22.5,16 21,16 C19.574,16 18.293,16.486 17.383,17.254 L15.551,16.278 C16.832,14.9 18.785,14 21,14 C23.285,14 25.293,14.95 26.57,16.4 L24.742,17.37 Z" id="Fill-2" fill="#FFFFFE"></path>
                        </g>
                    </g>
                </g>
            </g>
        </g>
    </g>
</svg>